# xmcd
#
# Track frame offsets: 
#        150
#        15246
#        29916
#        40680
#        55412
#        65614
#        82155
#        96251
#        113314
#        127525
#        144331
#        158728
#        171552
#        184563
#
# Disc length: 2634 seconds
#
# Revision: 0
# Processed by: cddbd v1.5.2PL0 Copyright (c) Steve Scherf et al.
# Submitted via: ExactAudioCopyFreeDBPlugin 1.0
#
DISCID=b00a480e
DTITLE=Roy Head - Still Treatin' 'Em Right
DYEAR=2011
DGENRE=Rhythm and Blues
TTITLE0=Earthquake
TTITLE1=One By One
TTITLE2=The Most Wanted Woman in Town
TTITLE3=Last Call for Lovin'
TTITLE4=Blue Moon of Kentucky
TTITLE5=Tonight's the Night
TTITLE6=Treat Her Right
TTITLE7=Come to Me
TTITLE8=Can't Turn 'em Down at All
TTITLE9=Nighttime in the City
TTITLE10=Fool on a Stool
TTITLE11=One Night
TTITLE12=Conversation's Good for the Blues
TTITLE13=The Beginning of the End
EXTD=
EXTT0=
EXTT1=
EXTT2=
EXTT3=
EXTT4=
EXTT5=
EXTT6=
EXTT7=
EXTT8=
EXTT9=
EXTT10=
EXTT11=
EXTT12=
EXTT13=
PLAYORDER=
